<?xml version="1.0" standalone="no"?>
<!DOCTYPE svg PUBLIC "-//W3C//DTD SVG 20010904//EN"
 "http://www.w3.org/TR/2001/REC-SVG-20010904/DTD/svg10.dtd">
<svg version="1.0" xmlns="http://www.w3.org/2000/svg"
 width="30.000000pt" height="30.000000pt" viewBox="0 0 30.000000 30.000000"
 preserveAspectRatio="xMidYMid meet">
<metadata>
Created by potrace 1.13, written by Peter Selinger 2001-2015
</metadata>
<g transform="translate(0.000000,30.000000) scale(0.100000,-0.100000)"
fill="#B2481A" stroke="none">
<path d="M202 278 c-7 -7 -12 -18 -12 -26 0 -7 -36 -49 -80 -93 -44 -44 -85
-90 -91 -101 -11 -20 -8 -20 34 5 59 35 84 35 99 0 6 -16 10 -34 9 -40 -1 -8
9 -13 26 -13 l27 0 -22 16 c-30 21 -28 49 8 82 21 19 32 39 36 67 10 78 13 85
37 85 22 1 22 1 -3 15 -31 18 -52 19 -68 3z"/>
</g>
</svg>
